<svg id="图层_1" data-name="图层 1" xmlns="http://www.w3.org/2000/svg" xmlns:xlink="http://www.w3.org/1999/xlink" viewBox="0 0 34.39 32.87"><defs><style>.cls-1{fill:#070001;}.cls-2{fill:url(#未命名的渐变_11);}.cls-3{fill:url(#未命名的渐变_19);}.cls-4{fill:url(#未命名的渐变_2);}.cls-5{fill:url(#未命名的渐变_2-2);}</style><linearGradient id="未命名的渐变_11" x1="16.57" y1="-48.25" x2="37.04" y2="-48.25" gradientTransform="translate(-7.38 72.76) rotate(-4.36)" gradientUnits="userSpaceOnUse"><stop offset="0" stop-color="#25bcef"/><stop offset="1" stop-color="#005bac"/></linearGradient><linearGradient id="未命名的渐变_19" x1="7.47" y1="19.1" x2="12.56" y2="11.72" gradientUnits="userSpaceOnUse"><stop offset="0" stop-color="#00a73c"/><stop offset="1" stop-color="#b8d200"/></linearGradient><linearGradient id="未命名的渐变_2" x1="22.1" y1="11.28" x2="27.48" y2="19.62" gradientUnits="userSpaceOnUse"><stop offset="0" stop-color="#ffe200"/><stop offset="1" stop-color="#f08300"/></linearGradient><linearGradient id="未命名的渐变_2-2" x1="21.11" y1="-61.88" x2="38.98" y2="-59.91" gradientTransform="translate(-7.38 72.76) rotate(-4.36)" xlink:href="#未命名的渐变_2"/></defs><title>常州健康医疗大数据名片1</title><path class="cls-1" d="M22.93,20.25h0Z"/><path class="cls-1" d="M23.07,20.25h0Z"/><path class="cls-2" d="M26,23.15a3.14,3.14,0,0,0-2.92-2.89h-.14a68.3,68.3,0,0,0-8.71.32,11,11,0,0,1-3.26.07,6.93,6.93,0,0,1-5.8-4.07,11.21,11.21,0,0,0,0,2.17,11.69,11.69,0,0,0,1.16,4.2,11.55,11.55,0,0,0,19,2.47v0A3.14,3.14,0,0,0,26,23.15Z"/><path class="cls-3" d="M12,13c-4.15.13-3.42-3.23-3.36-3.48a11.48,11.48,0,0,0-3.48,7.08A6.93,6.93,0,0,0,11,20.64c2.42-3.22,6.71-8,6.71-8A40.15,40.15,0,0,1,12,13Z"/><path class="cls-4" d="M27.14,13.11c-.08-.07-1.8-1.42-7.79-.72,3,5.13,2.75,5.21,4.56,7.26,1.76,1.54,4.15.37,4.24-.92A11.15,11.15,0,0,0,27.14,13.11Z"/><path class="cls-5" d="M27,12.71A11.54,11.54,0,0,0,8.64,9.49C8.58,9.74,7.85,13.1,12,13a40.15,40.15,0,0,0,5.67-.35c.6-.1,1.16-.17,1.68-.23,6-.7,7.71.65,7.79.72C27.08,13,27,12.84,27,12.71Z"/></svg>